<?xml version="1.0" standalone="no"?>
<!DOCTYPE svg PUBLIC "-//W3C//DTD SVG 20010904//EN"
 "http://www.w3.org/TR/2001/REC-SVG-20010904/DTD/svg10.dtd">
<svg version="1.0" xmlns="http://www.w3.org/2000/svg"
 width="1280.000000pt" height="644.000000pt" viewBox="0 0 1280.000000 644.000000"
 preserveAspectRatio="xMidYMid meet">
<metadata>
Created by potrace 1.15, written by Peter Selinger 2001-2017
</metadata>
<g transform="translate(0.000000,644.000000) scale(0.100000,-0.100000)"
fill="#000000" stroke="none">
<path d="M2885 6433 c-230 -19 -379 -48 -585 -116 -144 -47 -381 -159 -520
-247 -196 -123 -407 -304 -546 -471 -155 -186 -312 -458 -399 -694 -63 -170
-107 -238 -191 -295 -83 -58 -109 -63 -359 -70 -126 -4 -237 -10 -246 -14 -34
-15 -39 -53 -39 -299 0 -202 3 -246 15 -264 16 -23 80 -46 345 -123 169 -50
226 -76 280 -130 52 -52 81 -113 120 -245 113 -394 263 -676 513 -965 68 -80
87 -108 87 -132 0 -17 -25 -123 -56 -237 -155 -575 -215 -788 -319 -1146 -63
-214 -118 -410 -124 -435 -31 -142 -21 -288 25 -386 45 -95 136 -153 254 -162
120 -8 212 54 281 189 81 162 90 218 99 639 10 429 26 575 95 851 43 174 130
389 156 389 7 0 46 -20 88 -44 267 -157 561 -263 866 -313 151 -24 493 -24
655 0 542 83 967 295 1346 674 130 130 214 235 312 388 42 66 146 224 231 350
85 127 237 354 338 505 102 151 203 292 225 312 87 81 215 103 578 102 287 -1
397 -12 479 -49 77 -36 112 -71 199 -205 103 -159 236 -356 365 -543 60 -87
162 -244 227 -347 65 -104 155 -238 201 -297 542 -695 1431 -1035 2279 -872
292 56 567 157 786 290 84 50 86 51 104 33 37 -39 117 -277 158 -474 53 -251
73 -445 72 -725 0 -437 42 -630 166 -759 64 -68 114 -90 204 -90 183 -2 293
122 307 345 10 149 -16 282 -118 598 -33 102 -102 339 -155 526 -53 187 -125
441 -161 565 -105 362 -106 344 23 481 40 44 85 100 100 126 15 27 34 56 42
66 9 9 20 26 26 37 6 11 34 57 62 102 113 183 177 330 254 585 57 184 81 233
142 288 48 44 83 59 202 91 48 13 157 47 242 75 117 38 158 56 170 74 13 19
15 62 12 273 -3 222 -5 252 -21 269 -16 18 -36 20 -230 26 -241 7 -293 15
-368 60 -78 47 -120 109 -175 261 -126 345 -299 622 -544 866 -302 303 -657
512 -1065 629 -371 106 -831 118 -1208 30 -224 -52 -527 -184 -727 -316 -294
-194 -490 -394 -710 -723 -128 -191 -200 -280 -300 -367 -94 -82 -191 -143
-285 -178 -82 -31 -106 -31 -191 1 -241 91 -330 108 -569 108 -225 0 -279 -9
-519 -85 -109 -35 -138 -41 -186 -36 -170 15 -398 207 -597 502 -132 196 -223
313 -336 431 -314 329 -739 570 -1179 668 -188 42 -516 65 -703 49z m416 -288
c477 -56 879 -245 1221 -573 210 -202 371 -442 482 -719 103 -258 136 -421
143 -723 5 -196 3 -244 -16 -372 -64 -441 -258 -828 -583 -1160 -406 -415
-907 -621 -1513 -621 -493 0 -918 157 -1305 481 -374 313 -609 696 -714 1164
-39 176 -49 289 -43 507 5 201 17 295 62 472 94 374 292 711 581 989 194 187
379 303 719 450 11 5 40 14 65 20 25 6 73 20 106 31 94 30 380 67 534 68 74 0
192 -6 261 -14z m6812 -10 c351 -65 652 -202 932 -425 503 -401 785 -988 785
-1633 0 -525 -172 -988 -517 -1390 -129 -150 -355 -332 -550 -443 -403 -230
-863 -315 -1333 -248 -700 101 -1330 586 -1613 1244 -120 279 -166 513 -167
835 0 278 28 458 106 673 122 335 277 579 528 827 162 161 278 247 457 340
252 130 490 199 819 239 84 10 468 -3 553 -19z m-3568 -1535 c109 -16 218 -47
339 -97 110 -45 112 -45 196 -40 100 7 148 21 252 73 43 21 80 35 84 31 4 -4
-1 -53 -10 -109 -10 -57 -22 -195 -28 -308 -6 -113 -13 -207 -15 -209 -5 -6
-26 22 -87 114 -113 170 -204 220 -501 277 -105 20 -151 23 -375 23 -270 0
-326 -7 -533 -59 -174 -44 -243 -94 -342 -246 -96 -148 -91 -151 -99 68 -7
205 -19 320 -40 400 -7 29 -9 52 -4 52 5 0 42 -14 81 -31 124 -55 180 -70 273
-76 91 -6 92 -5 180 35 207 95 428 130 629 102z"/>
</g>
</svg>
